<svg xmlns="http://www.w3.org/2000/svg" viewBox="0 0 767.04 173.22" class="jss13" style="width: 146px;">
      <g>
            <g>
                  <path fill="#2494d2" d="M739.63,73a54.73,54.73,0,0,1,17.85,2.76c4.68-4.47,7.44-11.9,7.44-18.92,0,0-7.86-5.52-29.76-5.52-32.51,0-47.82,20.19-47.82,58s15.31,58,47.82,58c22.74,0,31.88-6.59,31.88-6.59-.21-7.22-3-14.87-7.43-18.91a62.62,62.62,0,0,1-19.13,3c-18.07,0-25.72-10.2-25.72-35.49S721.35,73,739.63,73ZM663.75,55.15s-4.67-1.7-13.39-1.7c-9.35,0-13.39,1.7-13.39,1.7V163.54s4,1.71,13.39,1.71c8.72,0,13.39-1.71,13.39-1.71Zm0-44.84s-4.67-1.7-13.39-1.7c-9.35,0-13.39,1.7-13.39,1.7V34.75s4,1.7,13.39,1.7c8.72,0,13.39-1.7,13.39-1.7ZM609.56,83.63c0-19.13-11.48-32.3-33.37-32.3-11.69,0-21.68,3.4-29.12,10.2V55.15s-4.67-1.7-13.39-1.7c-9.35,0-13.39,1.7-13.39,1.7V163.54s4,1.71,13.39,1.71c8.72,0,13.39-1.71,13.39-1.71V80.87A27.12,27.12,0,0,1,565.77,73c12.12,0,17,6.16,17,15.3v75.23s4,1.71,13.39,1.71c8.71,0,13.39-1.71,13.39-1.71ZM492.24,55.15s-4.68-1.7-13.39-1.7c-9.35,0-13.39,1.7-13.39,1.7V163.54s4,1.71,13.39,1.71c8.71,0,13.39-1.71,13.39-1.71Zm0-44.84s-4.68-1.7-13.39-1.7c-9.35,0-13.39,1.7-13.39,1.7V34.75s4,1.7,13.39,1.7c8.71,0,13.39-1.7,13.39-1.7ZM436.77,7.55s-4.68-1.71-13.39-1.71C414,5.84,410,7.55,410,7.55v156s4,1.71,13.39,1.71c8.71,0,13.39-1.71,13.39-1.71ZM286.51,88.73c0,51.22,22.31,78.64,64.4,78.64,24.65,0,38.89-7.44,38.89-7.44,0-7.86-2.76-15.73-8.08-20.61a92.43,92.43,0,0,1-27.84,4.46C331.35,143.78,315,132.94,315,89s16.36-55.69,38.89-55.69a83.68,83.68,0,0,1,25.72,4.47c4.89-5.32,8.71-11.48,8.07-20.2,0,0-13.17-7.43-36.76-7.43C308.82,10.1,286.51,37.51,286.51,88.73ZM262.07,55.15s-4.68-1.7-13.39-1.7c-9.35,0-13.39,1.7-13.39,1.7V163.54s4,1.71,13.39,1.71c8.71,0,13.39-1.71,13.39-1.71Zm0-44.84s-4.68-1.7-13.39-1.7c-9.35,0-13.39,1.7-13.39,1.7V34.75s4,1.7,13.39,1.7c8.71,0,13.39-1.7,13.39-1.7Z"></path>
                  <rect fill="#057cbd" y="56.42" width="175.67" height="61.2" rx="4.97" ry="4.97"></rect>
                  <path fill="#1395d3" d="M120.55,173.22H68.79a4.74,4.74,0,0,1-4.74-4.88,131.91,131.91,0,0,1,7.58-40.79,108.72,108.72,0,0,1,23-37.75,103,103,0,0,1,36.29-24.88,116.07,116.07,0,0,1,39.87-8.4,4.73,4.73,0,0,1,4.92,4.73V113a4.76,4.76,0,0,1-4.46,4.73c-13.22.87-24.23,5.65-32,14-8.36,8.9-13.12,21.63-13.89,37A4.73,4.73,0,0,1,120.55,173.22Z"></path>
                  <path fill="#1395d3" d="M0,112.79V61a4.74,4.74,0,0,1,4.42-4.73c13.25-.94,24.14-6.2,32.43-15.65S49.94,18.53,50.8,4.47A4.74,4.74,0,0,1,55.53,0h51.78A4.72,4.72,0,0,1,112,4.88c-1,28.83-11.3,55.68-29.16,76.06a105.66,105.66,0,0,1-36,26.82A111.5,111.5,0,0,1,5,117.52,4.74,4.74,0,0,1,0,112.79Z"></path>
            </g>
      </g>
</svg>
