<svg xmlns="http://www.w3.org/2000/svg" viewBox="0 0 767.04 173.22">
      <g>
            <rect fill="#057cbd" y="56.42" width="175.67" height="61.2" rx="4.97" ry="4.97"></rect>
            <path fill="#1395d3" d="M120.55,173.22H68.79a4.74,4.74,0,0,1-4.74-4.88,131.91,131.91,0,0,1,7.58-40.79,108.72,108.72,0,0,1,23-37.75,103,103,0,0,1,36.29-24.88,116.07,116.07,0,0,1,39.87-8.4,4.73,4.73,0,0,1,4.92,4.73V113a4.76,4.76,0,0,1-4.46,4.73c-13.22.87-24.23,5.65-32,14-8.36,8.9-13.12,21.63-13.89,37A4.73,4.73,0,0,1,120.55,173.22Z"></path>
            <path fill="#1395d3" d="M0,112.79V61a4.74,4.74,0,0,1,4.42-4.73c13.25-.94,24.14-6.2,32.43-15.65S49.94,18.53,50.8,4.47A4.74,4.74,0,0,1,55.53,0h51.78A4.72,4.72,0,0,1,112,4.88c-1,28.83-11.3,55.68-29.16,76.06a105.66,105.66,0,0,1-36,26.82A111.5,111.5,0,0,1,5,117.52,4.74,4.74,0,0,1,0,112.79Z"></path>
      </g>
</svg>